<svg xmlns="http://www.w3.org/2000/svg" viewBox="0 0 452.17 101.53"><defs><style>.cls-1{fill:#f5b821;}.cls-2{fill:#435995;}</style></defs><g id="Layer_2" data-name="Layer 2"><g id="Layer_1-2" data-name="Layer 1"><path class="cls-1" d="M0,96.5c1.24-2.2,3.25-2.39,5.52-2.39q121.1,0,242.2,0c.72,0,1.44,0,2.15.05a3.13,3.13,0,0,1,2.8,3.4c.06,2.33-.69,3.42-2.72,4H2.4A3.06,3.06,0,0,1,0,99.13v-.24a4.13,4.13,0,0,0,0-2.15Z"/><path class="cls-2" d="M250,101.53c1.26-.71,2.33-1.52,2.46-3.16a3.78,3.78,0,0,0-2.54-4.19c.44,0,.88,0,1.32,0H447.75c2.44,0,3.52.67,4.19,2.58.29.7-.1,1.47.23,2.17v.24a3.09,3.09,0,0,1-2.64,2.4Z"/><path class="cls-2" d="M231.44.6a20.07,20.07,0,0,1,8.72,4.62,20.85,20.85,0,0,1,5.44,8.18c.33.85.36,1.3-.77,1.5-2.36.4-4.69.95-7,1.49a1.14,1.14,0,0,1-1.54-.77,10.51,10.51,0,0,0-10.64-6,10.69,10.69,0,0,0-9.36,8.8,8.66,8.66,0,0,0,3.43,8.88,24.3,24.3,0,0,0,7.54,3.57A49.14,49.14,0,0,1,237,34.68a23,23,0,0,1,8.75,8.16c3.58,6.22,2.81,13.9-2.24,20s-11.62,8.87-19.44,7.87c-8.18-1-14.06-5.48-17.39-13.13-.43-1-.33-1.4.83-1.6,2.43-.42,4.85-1,7.26-1.51a.83.83,0,0,1,1.11.5,12.28,12.28,0,0,0,10.06,6.43c5.6.56,11.77-4.4,12.35-10,.35-3.3-1.19-5.79-3.75-7.69a27.06,27.06,0,0,0-9-4c-4.54-1.26-8.84-3-12.51-6-9.45-7.91-7.55-20.49-1.19-27.2A20.28,20.28,0,0,1,224,.17l.59-.08A20.33,20.33,0,0,1,231.44.6Z"/><path class="cls-2" d="M29,.6a20.82,20.82,0,0,1,8.65,4.55,21.24,21.24,0,0,1,5.53,8.23c.4,1,.15,1.35-.9,1.54-2.31.42-4.61.94-6.9,1.47a1.15,1.15,0,0,1-1.55-.76,10.5,10.5,0,0,0-10.76-6,10.71,10.71,0,0,0-9.27,8.9A8.62,8.62,0,0,0,16.87,27,21.23,21.23,0,0,0,24,30.56c3.59,1.22,7.27,2.17,10.58,4.11,3.56,2.09,6.73,4.62,8.8,8.27,3.52,6.2,2.73,13.83-2.29,19.88S29.46,71.69,21.63,70.7c-8.17-1-14.07-5.46-17.37-13.13-.55-1.28-.51-1.29.91-1.59,2.39-.49,4.77-1,7.15-1.51a.83.83,0,0,1,1.12.48,12.23,12.23,0,0,0,10,6.44C29,62,35.18,57.07,35.84,51.57c.4-3.35-1.14-5.88-3.74-7.81A27.11,27.11,0,0,0,23,39.67a34.89,34.89,0,0,1-10.3-4.39C-.12,26.7,2.9,11.43,11.29,4.67a21,21,0,0,1,5.4-3.2A19.46,19.46,0,0,1,21.58.18,18,18,0,0,1,24.23.06,25.81,25.81,0,0,1,29,.6Z"/><path class="cls-1" d="M256.65.22,289.84,45.7l6.27-8.59L321.72,2c.42-.58.77-1.19,1.15-1.79.41.34.25.82.25,1.23q0,33.49,0,67c0,1-.22,1.29-1.24,1.27-3.76-.06-7.51,0-11.27,0-.94,0-1.21-.23-1.2-1.19,0-8.43,0-16.85,0-25.28V41.47l-19.62,27L270.35,41.68a2,2,0,0,0-.19,1.31c0,8.46,0,16.93,0,25.4,0,1-.22,1.29-1.24,1.27-3.8-.06-7.6,0-11.39,0-.84,0-1.08-.22-1.08-1.07q0-33.72,0-67.45C256.48.82,256.37.48,256.65.22Z"/><path class="cls-1" d="M408.76,32v30c0,2.27,0,4.55,0,6.83,0,.7-.16,1-.92,1-4,0-7.92,0-11.88,0-.66,0-1-.18-.89-.87a4,4,0,0,0,0-.6V.2L435.89,39a2.51,2.51,0,0,0,.18-1.43c0-11.63,0-23.25,0-34.87,0-1.07.29-1.35,1.34-1.33,3.75.06,7.51,0,11.27,0,.78,0,1.13.15,1.13,1q0,34,0,68c0,.07,0,.15-.07.51Z"/><path class="cls-1" d="M331.59,24.11c0-7.06,0-14.13,0-21.2,0-1.07.3-1.34,1.35-1.32,3.75.06,7.51.07,11.27,0,1,0,1.23.33,1.23,1.29q0,19.71,0,39.41a13.82,13.82,0,0,0,12.86,14.12c6.78.66,13.91-5.25,14.51-12,.1-1.07.15-2.15.15-3.23q0-19.05,0-38.1c0-1.16.3-1.47,1.45-1.44,3.72.07,7.44.06,11.15,0,1,0,1.18.3,1.18,1.22,0,13.41,0,26.83,0,40.25a27.54,27.54,0,0,1-54.53,5.1,32.56,32.56,0,0,1-.5-6.31C331.57,35.94,331.59,30,331.59,24.11Z"/><path class="cls-2" d="M199.61,35.5c0,11.11,0,22.21,0,33.31,0,1-.16,1.4-1.28,1.34-2.2-.1-4.4-.11-6.6,0-1.22.06-1.4-.39-1.4-1.48.05-9.11,0-18.21.06-27.32,0-1.14-.25-1.46-1.43-1.45q-14.14.08-28.3,0c-1.22,0-1.41.36-1.4,1.46,0,9.19,0,18.38,0,27.56,0,.9-.16,1.25-1.16,1.22q-3.48-.12-6.95,0c-1,0-1.16-.35-1.16-1.23q0-20.55,0-41.1c0-8.67,0-17.33,0-26,0-1,.22-1.31,1.25-1.28,2.27.08,4.55.07,6.83,0,.93,0,1.21.23,1.2,1.19,0,9.18,0,18.37,0,27.56,0,1.27.38,1.49,1.54,1.48q14.08-.06,28.18,0c1.07,0,1.42-.23,1.42-1.37,0-9.15,0-18.29-.06-27.44,0-1.19.34-1.47,1.47-1.42a61.14,61.14,0,0,0,6.35,0c1.3-.08,1.47.4,1.46,1.54C199.59,13.21,199.61,24.36,199.61,35.5Z"/><path class="cls-2" d="M88.28,23.73c0,6.63-.08,13.27,0,19.89.23,14.54-11.29,25-21.83,26.86a28,28,0,0,1-17.86-2.25c-.85-.43-1-.79-.45-1.6,1.24-2,2.39-4.06,3.53-6.12.38-.68.61-.93,1.5-.54A18.26,18.26,0,0,0,78.55,47.65,21.08,21.08,0,0,0,79,42.77c0-13.62,0-27.24-.3-40.85C78.68.79,79,.51,80.09.55c2.27.09,4.56.08,6.83,0a1.22,1.22,0,0,1,.92.21,1.11,1.11,0,0,1,.24.89C88,2.61,88.11,11.4,88.28,23.73Z"/><path class="cls-2" d="M143.38,47.2a19.51,19.51,0,0,0-7.45-13.84,22.58,22.58,0,0,0-5.38-2.86c-.71-.29-.92-.57-.46-1.29a34.43,34.43,0,0,0,1.67-3,17,17,0,0,0,1.51-12.75c-2-7-9-12.6-16.27-12.79-5.91-.15-11.83,0-17.75-.09C98.13.53,97.78.76,97.79,2c0,11.15,0,22.29,0,33.43s0,22.36,0,33.55c0,.87.15,1.23,1.15,1.22,8-.05,16.07,0,24.1,0a19,19,0,0,0,4.75-.6A20.74,20.74,0,0,0,143.38,47.2ZM107.92,9.47c2.56,0,5.12,0,7.67,0a9.3,9.3,0,0,1,8.92,5.87,9.65,9.65,0,0,1-2.27,10.48,9.21,9.21,0,0,1-5.93,2.81c-2.78.23-5.58.33-8.37.53-.73.05-1-.17-1-.91,0-3,0-6,0-9s0-5.9,0-8.86C107,9.7,107.17,9.46,107.92,9.47ZM130,58.8a11,11,0,0,1-6.75,2.42c-5.11.07-10.22,0-15.33,0-.77,0-.93-.25-.93-1,0-3.71,0-7.42,0-11.13s0-7.26,0-10.89c0-.88.13-1.24,1.15-1.23,4.87.06,9.74,0,14.61,0a12.42,12.42,0,0,1,11.15,8.25A12.07,12.07,0,0,1,130,58.8Z"/></g></g></svg>